<svg width="390" height="390" xmlns="http://www.w3.org/2000/svg">
 <!-- Created with SVG-edit - http://svg-edit.googlecode.com/ -->
 <g>
  <title>Layer 1</title>
  <ellipse ry="184.999988" rx="184.999988" id="svg_2" cy="195" cx="195" stroke-width="20" stroke="#d35400" fill="#ffffff"/>
  <ellipse ry="143" rx="143" id="svg_4" cy="195" cx="195" fill-opacity="0" stroke-linecap="null" stroke-linejoin="null" stroke-width="20" stroke="#d35400" fill="#ff0000"/>
  <ellipse id="svg_10" fill-opacity="0" ry="99.249989" rx="99.249989" cy="195" cx="195" stroke-width="20" stroke="#d35400" fill="#ff0000"/>
  <g id="svg_16">
   <path transform="rotate(90 128.89830017089844,195.16400146484378) " id="svg_6" d="m-4.85338,268.015015l133.750383,-145.702011l133.752991,145.702011l-267.503354,0l0,0l0,0l0,0l-0.00002,0l0,0z" stroke-linecap="null" stroke-linejoin="null" stroke-width="0" stroke="#d35400" fill="#ffffff"/>
   <path transform="rotate(180 129.6488037109375,194.88819885253906) " id="svg_11" d="m93.398598,95.263397l36.250404,0l0,0c20.020996,0 36.25,44.604599 36.25,99.624603c0,55.020996 -16.229004,99.625 -36.25,99.625l-36.250404,0l0,-199.249603l0,0z" stroke-linecap="null" stroke-linejoin="null" stroke-width="20" stroke="#ffffff" fill="#ffffff"/>
   <line id="svg_13" y2="195.333336" x2="222.994224" y1="195.333336" x1="147.338641" fill-opacity="0" stroke-linecap="null" stroke-linejoin="null" stroke-width="20" stroke="#d35400" fill="none"/>
   <ellipse ry="68.316833" rx="5.445545" id="svg_15" cy="195.000017" cx="56.881202" stroke-linecap="null" stroke-linejoin="null" stroke-width="20" stroke="#ffffff" fill="#ffffff"/>
   <line id="svg_12" y2="304.142257" x2="185.58864" y1="85.976192" x1="185.58864" fill-opacity="0" stroke-linecap="null" stroke-linejoin="null" stroke-width="20" stroke="#d35400" fill="none"/>
  </g>
  <ellipse id="svg_17" fill-opacity="0" ry="184.999988" rx="184.999988" cy="195" cx="195" stroke-width="20" stroke="#d35400" fill="#ffffff"/>
 </g>
</svg>